 <svg width="24" height="24" viewBox="0 0 24 24" fill="currentColor" xmlns="http://www.w3.org/2000/svg">
<path d="M13.6364 11.6667H14.4545V13.3333H13.6364V14.1667H12.8182V15H11.1818V14.1667H10.3636V13.3333H9.54545V11.6667H10.3636V10.8333H11.1818V10H12.8182V10.8333H13.6364V11.6667ZM7.09091 11.6667H7.90909V13.3333H7.09091V14.1667H6.27273V15H4.63636V14.1667H3.81818V13.3333H3V11.6667H3.81818V10.8333H4.63636V10H6.27273V10.8333H7.09091V11.6667ZM21 11.6667V13.3333H20.1818V14.1667H19.3636V15H17.7273V14.1667H16.9091V13.3333H16.0909V11.6667H16.9091V10.8333H17.7273V10H19.3636V10.8333H20.1818V11.6667H21Z"  />
</svg>
