 <svg width="24" height="24" viewBox="0 0 24 24" fill="currentColor" xmlns="http://www.w3.org/2000/svg">
<path d="M23 10.2727V15.7273H22.0909V17.5455H21.1818V19.3636H20.2727V20.2727H19.3636V21.1818H18.4545V22.0909H16.6364V23H15.7273V18.4545H14.8182V17.5455H15.7273V16.6364H17.5455V15.7273H18.4545V14.8182H19.3636V10.2727H18.4545V7.54545H16.6364V8.45455H15.7273V9.36364H14.8182V8.45455H11.1818V9.36364H10.2727V8.45455H9.36364V7.54545H7.54545V10.2727H6.63636V14.8182H7.54545V15.7273H8.45455V16.6364H10.2727V18.4545H8.45455V17.5455H7.54545V16.6364H5.72727V17.5455H6.63636V19.3636H7.54545V20.2727H10.2727V23H9.36364V22.0909H7.54545V21.1818H6.63636V20.2727H5.72727V19.3636H4.81818V17.5455H3.90909V15.7273H3V10.2727H3.90909V8.45455H4.81818V6.63636H5.72727V5.72727H6.63636V4.81818H8.45455V3.90909H10.2727V3H15.7273V3.90909H17.5455V4.81818H19.3636V5.72727H20.2727V6.63636H21.1818V8.45455H22.0909V10.2727H23Z"  />
</svg>
