 <svg width="24" height="24" viewBox="0 0 24 24" fill="currentColor" xmlns="http://www.w3.org/2000/svg">
<path d="M21 10.3636V14.4545H20.1818V16.0909H19.3636V17.7273H18.5455V18.5455H17.7273V19.3636H16.0909V20.1818H14.4545V21H9.54545V20.1818H7.90909V19.3636H6.27273V18.5455H5.45455V17.7273H4.63636V16.0909H3.81818V14.4545H3V9.54545H3.81818V7.90909H4.63636V6.27273H5.45455V5.45455H6.27273V4.63636H7.90909V3.81818H9.54545V3H14.4545V3.81818H16.0909V4.63636H17.7273V6.27273H16.9091V7.09091H16.0909V7.90909H14.4545V7.09091H9.54545V7.90909H7.90909V9.54545H7.09091V14.4545H7.90909V16.0909H9.54545V16.9091H14.4545V16.0909H16.0909V14.4545H16.9091V13.6364H12V10.3636H21Z"  />
</svg>
