 <svg width="24" height="24" viewBox="0 0 24 24" fill="currentColor" xmlns="http://www.w3.org/2000/svg">
<path d="M14.4 12.8H15.2V13.6H16V14.4H16.8V15.2H17.6V16H18.4V16.8H19.2V17.6H20V18.4H19.2V19.2H18.4V20H17.6V19.2H16.8V18.4H16V17.6H15.2V16.8H14.4V16H13.6V15.2H12.8V14.4H11.2V15.2H10.4V16H9.6V16.8H8.8V17.6H8V18.4H7.2V19.2H6.4V20H5.6V19.2H4.8V18.4H4V17.6H4.8V16.8H5.6V16H6.4V15.2H7.2V14.4H8V13.6H8.8V12.8H9.6V11.2H8.8V10.4H8V9.6H7.2V8.8H6.4V8H5.6V7.2H4.8V6.4H4V5.6H4.8V4.8H5.6V4H6.4V4.8H7.2V5.6H8V6.4H8.8V7.2H9.6V8H10.4V8.8H11.2V9.6H12.8V8.8H13.6V8H14.4V7.2H15.2V6.4H16V5.6H16.8V4.8H17.6V4H18.4V4.8H19.2V5.6H20V6.4H19.2V7.2H18.4V8H17.6V8.8H16.8V9.6H16V10.4H15.2V11.2H14.4V12.8Z"  />
</svg>
