<svg height="32" viewBox="0 0 69 26" fill="none" xmlns="http://www.w3.org/2000/svg">
<path d="M19.1667 14.1667V10.6667H18V9.50008H16.8333V6.00008H15.6667V3.66675H14.5V2.50008H13.3333V1.33341H12.1667V0.166748H9.83333V1.33341H11V3.66675H9.83333V6.00008H8.66667V7.16675H7.5V8.33341H6.33333V9.50008H5.16667V10.6667H4V14.1667H5.16667V16.5001H4V15.3334H2.83333V13.0001H1.66667V15.3334H0.5V18.8334H1.66667V21.1667H2.83333V22.3334H4V23.5001H5.16667V24.6667H6.33333V25.8334H15.6667V24.6667H16.8333V23.5001H18V22.3334H19.1667V20.0001H20.3333V14.1667H19.1667ZM16.8333 22.3334H15.6667V23.5001H13.3333V24.6667H8.66667V23.5001H7.5V18.8334H8.66667V17.6667H9.83333V16.5001H11V15.3334H12.1667V11.8334H11V10.6667H9.83333V9.50008H11V10.6667H13.3333V13.0001H14.5V18.8334H13.3333V21.1667H14.5V20.0001H15.6667V18.8334H16.8333V22.3334Z" fill="var(--color-container-accent)"/>
<path d="M62.2155 18.2171H62.9412V18.9428H65.8441V16.7657H62.9412V17.4914H62.2155V18.2171ZM60.0384 18.9428H59.3127V17.4914H60.0384V16.04H61.4898V15.3143H65.8441V13.1372H65.1184V12.4115H62.9412V13.1372H62.2155V13.8629H59.3127V12.4115H60.0384V10.9601H61.4898V10.2344H66.5698V10.9601H68.0212V12.4115H68.7469V21.1199H65.8441V20.3942H65.1184V21.1199H61.4898V20.3942H60.0384V18.9428Z" fill="var(--color-content)"/>
<path d="M54.2285 5.87988H57.1313V8.78268H54.2285V5.87988ZM54.2285 10.9598H57.1313V21.1196H54.2285V10.9598Z" fill="var(--color-content)"/>
<path d="M44.0657 18.2171H43.3399V17.4914H42.6142V10.2344H45.5171V16.7657H46.2428V17.4914H46.9685V18.2171H47.6942V17.4914H48.4199V16.7657H49.1456V10.2344H52.0485V17.4914H51.3228V18.2171H50.5971V18.9428H49.8713V19.6685H49.1456V20.3942H48.4199V21.1199H46.2428V20.3942H45.5171V19.6685H44.7914V18.9428H44.0657V18.2171Z" fill="var(--color-content)"/>
<path d="M33.9028 18.2171H34.6286V18.9428H37.5314V16.7657H34.6286V17.4914H33.9028V18.2171ZM31.7257 18.9428H31V17.4914H31.7257V16.04H33.1771V15.3143H37.5314V13.1372H36.8057V12.4115H34.6286V13.1372H33.9028V13.8629H31V12.4115H31.7257V10.9601H33.1771V10.2344H38.2571V10.9601H39.7085V12.4115H40.4343V21.1199H37.5314V20.3942H36.8057V21.1199H33.1771V20.3942H31.7257V18.9428Z" fill="var(--color-content)"/>
</svg>
